<?xml version="1.0" standalone="no"?>
<!DOCTYPE svg PUBLIC "-//W3C//DTD SVG 20010904//EN"
 "http://www.w3.org/TR/2001/REC-SVG-20010904/DTD/svg10.dtd">
<svg version="1.0" xmlns="http://www.w3.org/2000/svg"
 width="300.000000pt" height="300.000000pt" viewBox="0 0 300.000000 300.000000"
 preserveAspectRatio="xMidYMid meet">
<metadata>
Created by potrace 1.11, written by Peter Selinger 2001-2013
</metadata>
<g transform="translate(0.000000,300.000000) scale(0.100000,-0.100000)"
fill="#000000" stroke="none">
<path d="M1385 2163 c-81 -7 -232 -35 -295 -54 -156 -47 -280 -141 -334 -250
-35 -73 -38 -88 -42 -204 -3 -120 10 -166 92 -328 178 -351 405 -595 580 -623
54 -8 76 -13 79 -16 2 -2 6 -66 9 -143 12 -315 12 -305 -5 -305 -9 0 -21 -6
-26 -12 -7 -11 -10 -135 -4 -211 1 -16 14 -17 174 -15 l172 3 -2 25 c-1 14 -5
50 -8 80 -4 30 -8 69 -10 85 -2 17 -4 33 -4 38 -1 4 -8 7 -16 7 -19 0 -17 -8
-20 132 -1 64 -5 124 -8 132 -4 9 -1 16 6 16 8 0 8 3 2 8 -6 4 -12 48 -13 97
-2 50 -4 105 -6 123 -2 27 4 37 33 59 56 42 58 44 122 108 34 32 73 75 87 95
15 19 29 37 32 40 11 10 78 117 114 182 38 68 92 212 101 271 3 18 8 45 11 60
7 35 7 144 0 177 -3 14 -9 39 -12 55 -9 42 -65 155 -77 155 -6 0 -8 3 -4 6 3
3 -18 27 -48 53 -85 74 -176 113 -340 146 -36 7 -284 13 -340 8z"/>
</g>
</svg>
